name C:\Users\u0101727\Documents\MyRepositories\upper-imu-dc\Results\main_tracking\Case_31\FLX01_linearAccelerations_bodyFrame.mot
datacolumns 4
datarows 141
range 0.51000000 1.91000000
endheader 
time	radius_imu_x	radius_imu_y	radius_imu_z	
          0.51000000	         -3.92724946	          9.77438836	          3.21608581	
          0.52000000	         -2.58471895	          9.62032197	          2.62773216	
          0.53000000	         -2.05396942	          9.71656264	          2.38325849	
          0.54000000	         -1.42140438	          9.75194240	          2.10668807	
          0.55000000	         -0.96559867	          9.78643983	          1.80857719	
          0.56000000	         -0.69092307	          9.80618787	          1.53369627	
          0.57000000	         -0.57242803	          9.80822176	          1.31531927	
          0.58000000	         -0.60084528	          9.79418581	          1.18004104	
          0.59000000	         -0.78046115	          9.76683231	          1.14716167	
          0.60000000	         -1.11545081	          9.73034310	          1.22340411	
          0.61000000	         -1.59821742	          9.69074418	          1.39806879	
          0.62000000	         -2.20143128	          9.65599076	          1.64430750	
          0.63000000	         -2.87818242	          9.63563214	          1.92576977	
          0.64000000	         -3.57333454	          9.63842706	          2.20424521	
          0.65000000	         -4.24369192	          9.66883060	          2.44572005	
          0.66000000	         -4.87013306	          9.72502014	          2.62396365	
          0.67000000	         -5.45460843	          9.79986398	          2.72169855	
          0.68000000	         -6.00461827	          9.88336014	          2.72972478	
          0.69000000	         -6.51857476	          9.96584185	          2.64629160	
          0.70000000	         -6.97961752	         10.04135578	          2.47744331	
          0.71000000	         -7.35963265	         10.10969766	          2.23697254	
          0.72000000	         -7.63014089	         10.17629331	          1.94504245	
          0.73000000	         -7.77311671	         10.25051915	          1.62578993	
          0.74000000	         -7.78583926	         10.34289700	          1.30388447	
          0.75000000	         -7.67979680	         10.46100090	          1.00050094	
          0.76000000	         -7.47706322	         10.60563345	          0.73052123	
          0.77000000	         -7.20635931	         10.76990829	          0.50219813	
          0.78000000	         -6.89834786	         10.94062373	          0.31864365	
          0.79000000	         -6.58006707	         11.10254125	          0.18019741	
          0.80000000	         -6.27145454	         11.24025033	          0.08587029	
          0.81000000	         -5.98304392	         11.34377275	          0.03434150	
          0.82000000	         -5.71783927	         11.40940466	          0.02350982	
          0.83000000	         -5.47172094	         11.44306447	          0.04986279	
          0.84000000	         -5.23641223	         11.45811798	          0.10740945	
          0.85000000	         -5.00192870	         11.47281705	          0.18693216	
          0.86000000	         -4.76098484	         11.50607618	          0.27583649	
          0.87000000	         -4.51283649	         11.57284419	          0.35643752	
          0.88000000	         -4.28699816	         11.66154830	          0.41295094	
          0.89000000	         -4.16221130	         11.77705156	          0.49080472	
          0.90000000	         -4.07681526	         11.91728854	          0.53635454	
          0.91000000	         -4.01402187	         12.08848026	          0.56895464	
          0.92000000	         -3.97790997	         12.27514139	          0.60188034	
          0.93000000	         -3.97542724	         12.46800424	          0.64507632	
          0.94000000	         -4.01293674	         12.65007684	          0.70394743	
          0.95000000	         -4.08990142	         12.82113431	          0.77622117	
          0.96000000	         -4.20366138	         12.95764411	          0.85286370	
          0.97000000	         -4.32726683	         13.06808260	          0.92460152	
          0.98000000	         -4.42962252	         13.14829077	          0.98654541	
          0.99000000	         -4.46902370	         13.21953030	          1.04261903	
          1.00000000	         -4.42062948	         13.29515433	          1.10159493	
          1.01000000	         -4.27963459	         13.39664328	          1.17470556	
          1.02000000	         -4.07640773	         13.52370215	          1.26525148	
          1.03000000	         -3.84695914	         13.67277379	          1.37396924	
          1.04000000	         -3.62706831	         13.83059647	          1.49745207	
          1.05000000	         -3.44411186	         13.98356454	          1.62924599	
          1.06000000	         -3.31872160	         14.12390501	          1.76018767	
          1.07000000	         -3.26797155	         14.24681668	          1.87913251	
          1.08000000	         -3.29288666	         14.35816947	          1.97538578	
          1.09000000	         -3.37910347	         14.46975215	          2.04003082	
          1.10000000	         -3.49737217	         14.59558504	          2.06764001	
          1.11000000	         -3.60791367	         14.74746746	          2.05849668	
          1.12000000	         -3.67250606	         14.92969314	          2.01796722	
          1.13000000	         -3.65881277	         15.13687495	          1.95569093	
          1.14000000	         -3.54190128	         15.35705018	          1.88434046	
          1.15000000	         -3.30722354	         15.57179600	          1.81682106	
          1.16000000	         -2.94416368	         15.76095779	          1.76499315	
          1.17000000	         -2.44107412	         15.90364826	          1.73939396	
          1.18000000	         -1.78009186	         15.98179664	          1.74874636	
          1.19000000	         -0.93311719	         15.98078875	          1.80141134	
          1.20000000	          0.13180039	         15.88953086	          1.90336320	
          1.21000000	          1.46077181	         15.69383501	          2.06703825	
          1.22000000	          3.04522207	         15.38050551	          2.30713465	
          1.23000000	          4.93136285	         14.10615418	          2.42563318	
          1.24000000	          5.32839113	         13.40005143	          2.33038133	
          1.25000000	          8.21620558	         12.82603124	          3.25477760	
          1.26000000	         10.96044928	         11.45462585	          3.46839163	
          1.27000000	         12.71016452	          9.94078336	          3.80657955	
          1.28000000	         14.26783725	          8.27038059	          4.19173244	
          1.29000000	         15.46289598	          5.51559558	          4.48459503	
          1.30000000	         15.79236882	          2.54862358	          4.30456393	
          1.31000000	         16.01438566	          5.73673791	          6.48994209	
          1.32000000	         16.41990944	          8.34620321	          8.19512079	
          1.33000000	         16.18383658	          7.32056791	          9.06267178	
          1.34000000	         16.15514679	          4.91996553	          9.15765266	
          1.35000000	         16.42324602	          3.00547230	          9.81949847	
          1.36000000	         16.19244044	         -0.15413849	          9.47113276	
          1.37000000	         15.03078549	         -0.54636786	         10.03897567	
          1.38000000	         13.79913892	          0.97144756	          9.88963148	
          1.39000000	         10.43395598	         -0.96791669	          9.80980923	
          1.40000000	          7.90607115	          1.36561875	          9.57387110	
          1.41000000	          3.88053590	          1.33157442	          9.02773612	
          1.42000000	          1.31504829	          3.72483625	          8.58485449	
          1.43000000	         -1.76117697	          5.16832986	          8.11693115	
          1.44000000	         -4.18243965	          5.59162382	          7.74510739	
          1.45000000	         -5.87456396	          5.45884702	          7.59522948	
          1.46000000	         -6.84509888	          4.89978653	          7.67232081	
          1.47000000	         -7.18665046	          3.91684227	          7.92037676	
          1.48000000	         -7.29478333	          2.25848607	          8.23467495	
          1.49000000	         -7.14384099	          0.11415553	          8.81007697	
          1.50000000	         -6.70832157	          0.95979823	          8.75799188	
          1.51000000	         -5.82036399	          2.10970484	          8.52535607	
          1.52000000	         -6.12091741	          1.56722480	          8.76176609	
          1.53000000	         -6.30582985	          2.07252935	          8.65739338	
          1.54000000	         -6.01105877	          2.61558314	          8.51417236	
          1.55000000	         -5.53717000	          2.76992916	          8.38027224	
          1.56000000	         -4.65900092	          2.70002026	          8.35740180	
          1.57000000	         -3.33988434	          2.44385962	          8.50937084	
          1.58000000	         -1.52404570	          2.01451336	          8.87048142	
          1.59000000	          0.60909445	          1.29333290	          9.44819304	
          1.60000000	          3.72634354	          0.76549940	         10.01732383	
          1.61000000	          6.88660344	          1.78428422	         10.99783560	
          1.62000000	          9.32138722	          0.33332644	         11.80095908	
          1.63000000	         12.04326098	         -1.34527386	         12.74237719	
          1.64000000	         14.32845543	         -3.50515053	         13.71711936	
          1.65000000	         15.77643614	         -6.62612708	         14.51801466	
          1.66000000	         17.57186788	         -6.48013318	         15.07035065	
          1.67000000	         16.49292960	         -1.94534737	         15.08131318	
          1.68000000	         15.91513682	          0.64139268	         14.81222755	
          1.69000000	         14.43687423	          1.99672428	         14.25196689	
          1.70000000	         12.56707111	          2.87786538	         13.61218284	
          1.71000000	         10.49858344	          3.50747342	         12.96752997	
          1.72000000	          8.35932083	          3.96389441	         12.35311326	
          1.73000000	          6.23695985	          4.28574780	         11.78526664	
          1.74000000	          4.19274200	          4.50437351	         11.26745023	
          1.75000000	          2.26814893	          4.64242041	         10.79704750	
          1.76000000	          0.49007087	          4.71246117	         10.37016922	
          1.77000000	         -1.12443958	          4.72098854	          9.98448843	
          1.78000000	         -2.56583954	          4.67320125	          9.63993888	
          1.79000000	         -3.83313323	          4.57534529	          9.33728842	
          1.80000000	         -4.93624520	          4.43408637	          9.07547344	
          1.81000000	         -5.89691899	          4.25452328	          8.84953116	
          1.82000000	         -6.74599634	          4.03885213	          8.65050943	
          1.83000000	         -7.51671905	          3.78690305	          8.46761033	
          1.84000000	         -8.23562755	          3.49833748	          8.29131914	
          1.85000000	         -8.91512090	          3.17497797	          8.11556746	
          1.86000000	         -9.55254862	          2.82125581	          7.93758869	
          1.87000000	        -10.13554794	          2.44260463	          7.75637407	
          1.88000000	        -10.64794418	          2.04433358	          7.57140547	
          1.89000000	        -11.07286232	          1.63306321	          7.38300058	
          1.90000000	        -11.39414670	          1.21778513	          7.19200452	
          1.91000000	        -11.59950846	          0.80839639	          6.99989058	
